<svg width="364" height="366" viewBox="0 0 364 366" fill="none" xmlns="http://www.w3.org/2000/svg">
<mask id="mask0_2_4" style="mask-type:alpha" maskUnits="userSpaceOnUse" x="0" y="0" width="364" height="366">
<path d="M182 366C282.516 366 364 284.068 364 183C364 81.9319 282.516 0 182 0C81.4842 0 0 81.9319 0 183C0 284.068 81.4842 366 182 366Z" fill="white"/>
</mask>
<g mask="url(#mask0_2_4)">
<path fill-rule="evenodd" clip-rule="evenodd" d="M0 0H364V366H0V0Z" fill="#D1D9DD" fill-opacity="0.5"/>
<path d="M215.09 235.753V261.246H220.606C275.434 261.246 319.878 305.936 319.878 361.065V373.541H44.1218V361.065C44.1218 305.936 88.5665 261.246 143.394 261.246H148.91V235.753C125.143 224.401 108.058 201.198 105.209 173.741C97.1777 172.599 91 165.659 91 157.269V137.86C91 129.617 96.962 122.774 104.788 121.453V112.905C104.788 70.0285 139.356 35.2688 182 35.2688C224.644 35.2688 259.212 70.0285 259.212 112.905V121.453C267.038 122.774 273 129.617 273 137.86V157.269C273 165.659 266.822 172.599 258.792 173.741C255.942 201.198 238.857 224.401 215.09 235.753Z" fill="#D0C6AC"/>
<mask id="mask1_2_4" style="mask-type:alpha" maskUnits="userSpaceOnUse" x="44" y="35" width="276" height="339">
<path d="M215.09 235.753V261.246H220.605C275.432 261.246 319.878 305.936 319.878 361.065V373.541H44.1203V361.065C44.1203 305.936 88.5665 261.246 143.393 261.246H148.908V235.753C125.141 224.399 108.058 201.198 105.208 173.739C97.1763 172.599 91 165.659 91 157.269V137.86C91 129.617 96.962 122.774 104.787 121.453V112.905C104.787 70.0285 139.356 35.2688 182 35.2688C224.644 35.2688 259.212 70.0285 259.212 112.905V121.453C267.038 122.774 273 129.617 273 137.86V157.269C273 165.659 266.824 172.599 258.792 173.739C255.942 201.198 238.859 224.399 215.092 235.753H215.09Z" fill="white"/>
</mask>
<g mask="url(#mask1_2_4)">
<path d="M0 35.2688H364V373.541H0V35.2688Z" fill="#D08B5B"/>
</g>
<mask id="mask2_2_4" style="mask-type:alpha" maskUnits="userSpaceOnUse" x="44" y="35" width="276" height="339">
<path d="M215.09 235.753V261.246H220.605C275.432 261.246 319.878 305.936 319.878 361.065V373.541H44.1203V361.065C44.1203 305.936 88.5665 261.246 143.393 261.246H148.908V235.753C125.141 224.399 108.058 201.198 105.208 173.739C97.1763 172.599 91 165.659 91 157.269V137.86C91 129.617 96.962 122.774 104.787 121.453V112.905C104.787 70.0285 139.356 35.2688 182 35.2688C224.644 35.2688 259.212 70.0285 259.212 112.905V121.453C267.038 122.774 273 129.617 273 137.86V157.269C273 165.659 266.824 172.599 258.792 173.739C255.942 201.198 238.859 224.399 215.092 235.753H215.09Z" fill="white"/>
</mask>
<g mask="url(#mask2_2_4)">
<path d="M259.211 165.587V176.678C259.211 219.556 224.642 254.314 181.999 254.314C139.356 254.314 104.786 219.556 104.786 176.678V144.791V165.587C104.786 208.465 139.356 243.223 181.999 243.223C224.642 243.223 259.211 208.465 259.211 165.587Z" fill="black" fill-opacity="0.1"/>
</g>
<path fill-rule="evenodd" clip-rule="evenodd" d="M228.824 261.655C279.806 265.856 319.878 308.792 319.878 361.136V373.541H44.1218V361.136C44.1218 308.317 84.9221 265.08 136.563 261.551C136.521 262.068 136.5 262.59 136.5 263.116C136.5 279.561 157.18 292.894 182.69 292.894C208.199 292.894 228.88 279.561 228.88 263.114C228.88 262.626 228.861 262.14 228.824 261.655Z" fill="#E6E6E6"/>
<mask id="mask3_2_4" style="mask-type:alpha" maskUnits="userSpaceOnUse" x="44" y="261" width="276" height="113">
<path d="M228.824 261.656C279.806 265.856 319.878 308.792 319.878 361.137V373.543H44.1203V361.137C44.1203 308.318 84.9221 265.08 136.562 261.551C136.521 262.069 136.499 262.59 136.499 263.116C136.499 279.562 157.179 292.894 182.688 292.894C208.198 292.894 228.878 279.562 228.878 263.116C228.878 262.626 228.859 262.14 228.824 261.656Z" fill="white"/>
</mask>
<g mask="url(#mask3_2_4)">
<path fill-rule="evenodd" clip-rule="evenodd" d="M0 221.043H364V373.541H0V221.043Z" fill="#93FAB0"/>
</g>
<mask id="mask4_2_4" style="mask-type:alpha" maskUnits="userSpaceOnUse" x="44" y="261" width="276" height="113">
<path d="M228.824 261.656C279.806 265.856 319.878 308.792 319.878 361.137V373.543H44.1203V361.137C44.1203 308.318 84.9221 265.08 136.562 261.551C136.521 262.069 136.499 262.59 136.499 263.116C136.499 279.562 157.179 292.894 182.688 292.894C208.198 292.894 228.878 279.562 228.878 263.116C228.878 262.626 228.859 262.14 228.824 261.656Z" fill="white"/>
</mask>
<g mask="url(#mask4_2_4)">
<g opacity="0.6">
<path opacity="0.6" d="M182.688 302.508C212.87 302.508 237.337 285.802 237.337 265.195C237.337 244.588 212.87 227.882 182.688 227.882C152.507 227.882 128.04 244.588 128.04 265.195C128.04 285.802 152.507 302.508 182.688 302.508Z" fill="black" fill-opacity="0.16"/>
</g>
</g>
<path fill-rule="evenodd" clip-rule="evenodd" d="M155.965 192.106C157.424 205.264 168.523 215.497 182 215.497C195.518 215.497 206.643 205.202 208.048 191.983C208.161 190.921 206.98 189.156 205.499 189.156H158.681C157.191 189.156 155.818 190.789 155.965 192.106Z" fill="black" fill-opacity="0.7"/>
<mask id="mask5_2_4" style="mask-type:alpha" maskUnits="userSpaceOnUse" x="155" y="189" width="54" height="27">
<path d="M155.965 192.106C157.424 205.264 168.525 215.494 182 215.494C195.518 215.494 206.645 205.201 208.048 191.982C208.161 190.919 206.98 189.154 205.499 189.154H158.681C157.192 189.154 155.82 190.788 155.965 192.106Z" fill="white"/>
</mask>
<g mask="url(#mask5_2_4)">
<path fill-rule="evenodd" clip-rule="evenodd" d="M168.214 173.905H197.168C198.996 173.905 200.75 174.635 202.042 175.935C203.335 177.235 204.062 178.998 204.062 180.836V189.154C204.062 190.993 203.335 192.756 202.042 194.056C200.75 195.356 198.996 196.086 197.168 196.086H168.214C166.385 196.086 164.632 195.356 163.339 194.056C162.046 192.756 161.32 190.993 161.32 189.154V180.836C161.32 178.998 162.046 177.235 163.339 175.935C164.632 174.635 166.385 173.905 168.214 173.905Z" fill="#93FAB0"/>
</g>
<mask id="mask6_2_4" style="mask-type:alpha" maskUnits="userSpaceOnUse" x="155" y="189" width="54" height="27">
<path d="M155.965 192.106C157.424 205.264 168.525 215.494 182 215.494C195.518 215.494 206.645 205.201 208.048 191.982C208.161 190.919 206.98 189.154 205.499 189.154H158.681C157.192 189.154 155.82 190.788 155.965 192.106Z" fill="white"/>
</mask>
<g mask="url(#mask6_2_4)">
<path d="M175.106 234.903C183.482 234.903 190.272 228.075 190.272 219.653C190.272 211.231 183.482 204.404 175.106 204.404C166.73 204.404 159.94 211.231 159.94 219.653C159.94 228.075 166.73 234.903 175.106 234.903Z" fill="#FF4F6D"/>
<path d="M188.894 234.903C197.27 234.903 204.06 228.075 204.06 219.653C204.06 211.231 197.27 204.404 188.894 204.404C180.518 204.404 173.728 211.231 173.728 219.653C173.728 228.075 180.518 234.903 188.894 234.903Z" fill="#FF4F6D"/>
</g>
<path d="M165.454 165.587C165.454 171.712 172.862 176.678 182 176.678C191.138 176.678 198.546 171.713 198.546 165.587" fill="black" fill-opacity="0.16"/>
<path d="M146.152 148.95C150.72 148.95 154.424 145.226 154.424 140.633C154.424 136.039 150.72 132.315 146.152 132.315C141.583 132.315 137.88 136.039 137.88 140.633C137.88 145.226 141.583 148.95 146.152 148.95Z" fill="black" fill-opacity="0.6"/>
<path d="M217.85 148.95C222.418 148.95 226.122 145.226 226.122 140.633C226.122 136.039 222.418 132.315 217.85 132.315C213.281 132.315 209.577 136.039 209.577 140.633C209.577 145.226 213.281 148.95 217.85 148.95Z" fill="black" fill-opacity="0.6"/>
<path d="M136.177 101.23L137.433 100.672C144.661 97.7869 155.616 98.9956 162.315 102.229C163.097 102.607 162.563 103.827 161.761 103.764C141.191 102.17 127.343 115.058 122.637 123.785C122.498 124.043 122.076 124.073 121.972 123.83C118.792 116.457 128.107 104.443 136.179 101.23H136.177Z" fill="#D08B5B"/>
<path d="M227.823 101.23L226.567 100.672C219.339 97.7869 208.384 98.9956 201.685 102.229C200.903 102.607 201.437 103.827 202.239 103.764C222.809 102.17 236.657 115.058 241.363 123.785C241.502 124.043 241.923 124.073 242.028 123.83C245.208 116.457 235.893 104.443 227.821 101.23H227.823Z" fill="black" fill-opacity="0.6"/>
<mask id="mask7_2_4" style="mask-type:alpha" maskUnits="userSpaceOnUse" x="0" y="-15" width="364" height="389">
<path d="M0 -14.64H364V373.541H0V-14.64Z" fill="white"/>
</mask>
<g mask="url(#mask7_2_4)">
<path d="M195.05 127.315C200.448 116.314 211.716 108.746 224.742 108.746C237.042 108.746 247.771 115.492 253.476 125.506C253.767 125.426 254.072 125.383 254.386 125.383H265.416C266.33 125.383 267.207 125.748 267.854 126.398C268.5 127.048 268.863 127.93 268.863 128.849C268.863 129.768 268.5 130.65 267.854 131.3C267.207 131.95 266.33 132.315 265.416 132.315H256.404C257.333 135.385 257.834 138.643 257.834 142.02C257.834 160.395 243.018 175.292 224.742 175.292C206.467 175.292 191.652 160.395 191.652 142.02C191.652 140.048 191.822 138.116 192.149 136.239C192.032 130.174 187.395 125.383 181.811 125.383C176.659 125.383 172.314 129.458 171.579 134.852C172.082 137.16 172.348 139.56 172.348 142.02C172.348 160.395 157.533 175.292 139.258 175.292C120.982 175.292 106.166 160.395 106.166 142.02C106.166 138.643 106.667 135.385 107.596 132.315H98.5838C97.6696 132.315 96.7929 131.95 96.1465 131.3C95.5 130.65 95.1368 129.768 95.1368 128.849C95.1368 127.93 95.5 127.048 96.1465 126.398C96.7929 125.748 97.6696 125.383 98.5838 125.383H109.614C109.928 125.383 110.233 125.426 110.524 125.506C116.228 115.492 126.96 108.746 139.258 108.746C152.152 108.746 163.324 116.162 168.786 126.984C171.648 122.665 176.415 119.837 181.811 119.837C187.343 119.837 192.213 122.809 195.05 127.315ZM139.258 169.747C154.487 169.747 166.834 157.334 166.834 142.021C166.834 126.707 154.487 114.294 139.258 114.294C124.029 114.294 111.68 126.705 111.68 142.02C111.68 157.333 124.027 169.746 139.256 169.746L139.258 169.747ZM224.742 169.747C239.971 169.747 252.318 157.334 252.318 142.021C252.318 126.707 239.971 114.294 224.742 114.294C209.513 114.294 197.166 126.707 197.166 142.021C197.166 157.334 209.513 169.747 224.742 169.747Z" fill="black"/>
<path fill-rule="evenodd" clip-rule="evenodd" d="M195.05 127.315C200.448 116.314 211.716 108.746 224.742 108.746C237.042 108.746 247.771 115.492 253.476 125.506C253.767 125.426 254.072 125.383 254.386 125.383H265.416C266.33 125.383 267.207 125.748 267.854 126.398C268.5 127.048 268.863 127.93 268.863 128.849C268.863 129.768 268.5 130.65 267.854 131.3C267.207 131.95 266.33 132.315 265.416 132.315H256.404C257.333 135.385 257.834 138.643 257.834 142.02C257.834 160.395 243.018 175.292 224.742 175.292C206.467 175.292 191.652 160.395 191.652 142.02C191.652 140.048 191.822 138.116 192.149 136.239C192.032 130.174 187.395 125.383 181.811 125.383C176.659 125.383 172.314 129.458 171.579 134.852C172.082 137.16 172.348 139.56 172.348 142.02C172.348 160.395 157.533 175.292 139.258 175.292C120.982 175.292 106.166 160.395 106.166 142.02C106.166 138.643 106.667 135.385 107.596 132.315H98.5838C97.6696 132.315 96.7929 131.95 96.1465 131.3C95.5 130.65 95.1368 129.768 95.1368 128.849C95.1368 127.93 95.5 127.048 96.1465 126.398C96.7929 125.748 97.6696 125.383 98.5838 125.383H109.614C109.928 125.383 110.233 125.426 110.524 125.506C116.228 115.492 126.96 108.746 139.258 108.746C152.152 108.746 163.324 116.162 168.786 126.984C171.648 122.665 176.415 119.837 181.811 119.837C187.343 119.837 192.213 122.809 195.05 127.315ZM139.258 169.747C154.487 169.747 166.834 157.334 166.834 142.021C166.834 126.707 154.487 114.294 139.258 114.294C124.029 114.294 111.68 126.705 111.68 142.02C111.68 157.333 124.027 169.746 139.256 169.746L139.258 169.747ZM224.742 169.747C239.971 169.747 252.318 157.334 252.318 142.021C252.318 126.707 239.971 114.294 224.742 114.294C209.513 114.294 197.166 126.707 197.166 142.021C197.166 157.334 209.513 169.747 224.742 169.747Z" fill="#252C2F"/>
<path fill-rule="evenodd" clip-rule="evenodd" d="M120.208 37.8426C127.296 32.5297 135.675 27.9769 144.417 26.228C153.307 24.4497 158.7 24.0187 167.45 26.1262C169.702 26.6693 170.461 27.208 172.442 25.9196C174.112 24.8363 185.765 12.7642 221.28 19.4644C257.176 26.2369 267.839 80.5687 281.155 82.6363C285.954 83.3801 291.884 82.1021 292.07 79.1327C297.535 87.4976 298.975 98.5514 296.659 108.348C294.662 116.786 290.457 124.715 282.885 129.334C276.368 133.308 267.361 135.041 259.83 134.307C256.404 133.974 253.288 133.249 250.136 131.857C246.331 130.182 243.3 127.157 239.568 125.56C243.466 128.961 247.706 131.943 252.22 134.459C254.48 135.715 256.774 136.581 259.269 137.263C260.972 137.73 264.455 139.318 266.103 138.901C255.337 140.839 245.199 139.152 235.329 134.518C230.874 132.427 226.59 129.899 222.656 126.925C218.751 123.974 214.254 120.956 211.198 117.07C212.481 118.737 210.236 116.257 209.94 115.953C209.102 115.093 208.28 114.217 207.476 113.326C206.081 111.8 204.734 110.232 203.435 108.624C200.686 105.178 198.126 101.578 195.842 97.8061C193.529 93.9853 184.318 78.5734 181.536 74.9459C184.163 82.8592 187.024 90.7754 190.372 98.4112C183.873 96.3716 177.57 90.7237 173.42 85.461C168.742 79.5327 165.972 72.6126 164.996 65.1288C159.723 79.5681 147.369 90.9554 134.62 98.8097C137.382 93.6384 141.59 89.2656 144.344 84.0073C131.671 96.9398 110.468 103.267 104.916 122.234C103.492 115.638 98.9155 110.339 97.5432 103.61C96.0212 96.1399 94.9277 88.2104 95.1699 80.5746C95.7173 63.6028 107.072 47.6877 120.208 37.8426Z" fill="#D6B370"/>
</g>
<g style="mix-blend-mode:color">
<path fill-rule="evenodd" clip-rule="evenodd" d="M-1448.72 -2232.6H1812.72V2598.6H-1448.72V-2232.6Z" fill="#E8ECEE"/>
</g>
<path opacity="0.8" fill-rule="evenodd" clip-rule="evenodd" d="M-1448.72 -2232.6H1812.72V2598.6H-1448.72V-2232.6Z" fill="#E8ECEE"/>
</g>
</svg>
