<svg xmlns="http://www.w3.org/2000/svg" xmlns:xlink="http://www.w3.org/1999/xlink" width="248" height="248" viewBox="0 0 248 248">
    <defs>
        <circle id="a" cx="124" cy="124" r="124"/>
        <path id="c" d="M116.485 135.847v17.274h3.757c37.355 0 67.637 30.282 67.637 67.637v8.454H0v-8.454c0-37.355 30.282-67.637 67.636-67.637h3.758v-17.274c-16.193-7.693-27.832-23.414-29.774-42.02-5.472-.773-9.68-5.475-9.68-11.16V69.515c0-5.585 4.062-10.222 9.393-11.117v-5.792C41.333 23.553 64.886 0 93.94 0c29.054 0 52.606 23.553 52.606 52.606v5.792c5.332.895 9.394 5.532 9.394 11.117v13.152c0 5.685-4.208 10.387-9.68 11.16-1.942 18.606-13.581 34.327-29.774 42.02z"/>
        <path id="e" d="M116.485 135.847v17.274h3.757c37.355 0 67.637 30.282 67.637 67.637v8.454H0v-8.454c0-37.355 30.282-67.637 67.636-67.637h3.758v-17.274c-16.193-7.693-27.832-23.414-29.774-42.02-5.472-.773-9.68-5.475-9.68-11.16V69.515c0-5.585 4.062-10.222 9.393-11.117v-5.792C41.333 23.553 64.886 0 93.94 0c29.054 0 52.606 23.553 52.606 52.606v5.792c5.332.895 9.394 5.532 9.394 11.117v13.152c0 5.685-4.208 10.387-9.68 11.16-1.942 18.606-13.581 34.327-29.774 42.02z"/>
        <path id="g" d="M125.842.277c34.735 2.846 62.037 31.939 62.037 67.408v8.406H0v-8.406C0 31.895 27.799 2.597 62.982.206c-.028.351-.043.704-.043 1.06 0 11.144 14.09 20.178 31.47 20.178s31.47-9.034 31.47-20.178c0-.332-.013-.661-.037-.989z"/>
        <path id="i" d="M125.842.277c34.735 2.846 62.037 31.939 62.037 67.408v8.406H0v-8.406C0 31.895 27.799 2.597 62.982.206c-.028.351-.043.704-.043 1.06 0 11.144 14.09 20.178 31.47 20.178s31.47-9.034 31.47-20.178c0-.332-.013-.661-.037-.989z"/>
        <path id="k" d="M.11 2c.994 8.916 8.557 15.848 17.738 15.848 9.21 0 16.791-6.975 17.747-15.932.077-.72-.728-1.916-1.737-1.916H1.96C.946 0 .011 1.107.11 2z"/>
        <path id="m" d="M.11 2c.994 8.916 8.557 15.848 17.738 15.848 9.21 0 16.791-6.975 17.747-15.932.077-.72-.728-1.916-1.737-1.916H1.96C.946 0 .011 1.107.11 2z"/>
        <path id="o" d="M0 0h248v263.03H0z"/>
    </defs>
    <g fill="none" fill-rule="evenodd">
        <mask id="b" fill="#fff">
            <use xlink:href="#a"/>
        </mask>
        <g fill="#D1D9DD" fill-opacity=".5" mask="url(#b)">
            <path d="M0 0h248v248H0z"/>
        </g>
        <g mask="url(#b)">
            <path fill="#D0C6AC" fill-rule="nonzero" d="M146.545 159.745v17.274h3.758c37.355 0 67.636 30.282 67.636 67.637v8.454H30.061v-8.454c0-37.355 30.281-67.637 67.636-67.637h3.758v-17.274c-16.193-7.692-27.833-23.414-29.774-42.019-5.472-.774-9.681-5.476-9.681-11.161V93.413c0-5.585 4.062-10.222 9.394-11.117v-5.792c0-29.053 23.552-52.606 52.606-52.606 29.054 0 52.606 23.553 52.606 52.606v5.792c5.332.895 9.394 5.532 9.394 11.117v13.152c0 5.685-4.209 10.387-9.68 11.161-1.942 18.605-13.582 34.327-29.775 42.019z"/>
            <g transform="translate(30.06 23.898)">
                <mask id="d" fill="#fff">
                    <use xlink:href="#c"/>
                </mask>
                <g mask="url(#d)">
                    <path fill="#D08B5B" fill-rule="nonzero" d="M-30.06 0h248v229.212h-248z"/>
                </g>
            </g>
            <g transform="translate(30.06 23.898)">
                <mask id="f" fill="#fff">
                    <use xlink:href="#e"/>
                </mask>
                <path fill="#000" fill-opacity=".1" fill-rule="nonzero" d="M146.545 88.303v7.515c0 29.054-23.552 52.606-52.606 52.606-29.053 0-52.606-23.552-52.606-52.606V74.212v14.091c0 29.054 23.553 52.606 52.606 52.606 29.054 0 52.606-23.552 52.606-52.606z" mask="url(#f)"/>
            </g>
            <path fill="#E6E6E6" d="M155.902 177.296c34.735 2.847 62.037 31.94 62.037 67.408v8.406H30.061v-8.406c0-35.79 27.798-65.087 62.982-67.478-.029.35-.043.704-.043 1.06 0 11.143 14.09 20.178 31.47 20.178s31.47-9.035 31.47-20.179c0-.331-.013-.66-.038-.989z"/>
            <g transform="translate(30.06 177.02)">
                <mask id="h" fill="#fff">
                    <use xlink:href="#g"/>
                </mask>
                <g fill="#FFF" mask="url(#h)">
                    <path d="M-30.06-27.242h248V76.09h-248z"/>
                </g>
            </g>
            <g transform="translate(30.06 177.02)">
                <mask id="j" fill="#fff">
                    <use xlink:href="#i"/>
                </mask>
                <g fill-opacity=".16" mask="url(#j)" opacity=".6">
                    <ellipse cx="38.045" cy="26.16" fill="#000" rx="37.233" ry="25.283" transform="translate(56.364 -23.485)"/>
                </g>
            </g>
            <g>
                <path fill="#000" fill-opacity=".7" d="M106.262 130.17c.994 8.916 8.556 15.85 17.738 15.85 9.21 0 16.79-6.976 17.747-15.933.077-.72-.728-1.916-1.737-1.916h-31.898c-1.015 0-1.95 1.107-1.85 1.999z"/>
                <g transform="translate(106.152 128.17)">
                    <mask id="l" fill="#fff">
                        <use xlink:href="#k"/>
                    </mask>
                    <path fill="#FFF" d="M8.455-10.333h19.727a4.697 4.697 0 0 1 4.697 4.697V0a4.697 4.697 0 0 1-4.697 4.697H8.455A4.697 4.697 0 0 1 3.758 0v-5.636a4.697 4.697 0 0 1 4.697-4.697z" mask="url(#l)"/>
                </g>
                <g transform="translate(106.152 128.17)">
                    <mask id="n" fill="#fff">
                        <use xlink:href="#m"/>
                    </mask>
                    <g mask="url(#n)">
                        <g fill="#FF4F6D" transform="translate(2.818 10.333)">
                            <circle cx="10.333" cy="10.333" r="10.333"/>
                            <circle cx="19.727" cy="10.333" r="10.333"/>
                        </g>
                    </g>
                </g>
                <path fill="#000" fill-opacity=".16" fill-rule="nonzero" d="M112.727 112.201c0 4.15 5.047 7.515 11.273 7.515s11.273-3.364 11.273-7.515"/>
                <g fill="#000" fill-opacity=".6" fill-rule="nonzero" transform="translate(93.94 89.656)">
                    <circle cx="5.636" cy="5.636" r="5.636"/>
                    <circle cx="54.485" cy="5.636" r="5.636"/>
                </g>
                <g fill-rule="nonzero">
                    <path fill="#D08B5B" d="M92.78 68.593l.856-.378c4.924-1.955 12.388-1.136 16.952 1.055.533.256.169 1.083-.377 1.04-14.015-1.08-23.45 7.653-26.656 13.566-.095.175-.382.195-.453.031-2.167-4.996 4.18-13.137 9.679-15.314z"/>
                    <path fill="#000" fill-opacity=".6" d="M155.22 68.593l-.856-.378c-4.924-1.955-12.388-1.136-16.952 1.055-.533.256-.169 1.083.377 1.04 14.015-1.08 23.45 7.653 26.656 13.566.095.175.382.195.453.031 2.167-4.996-4.18-13.137-9.679-15.314z"/>
                </g>
            </g>
            <g>
                <g transform="translate(0 -9.92)">
                    <mask id="p" fill="#fff">
                        <use xlink:href="#o"/>
                    </mask>
                    <g mask="url(#p)">
                        <path fill="#000" fill-rule="nonzero" d="M132.891 96.188c3.678-7.454 11.355-12.582 20.23-12.582 8.38 0 15.69 4.571 19.577 11.356.198-.054.406-.083.62-.083h7.515a2.348 2.348 0 0 1 0 4.697h-6.14c.633 2.08.974 4.288.974 6.576 0 12.451-10.094 22.545-22.546 22.545-12.451 0-22.545-10.094-22.545-22.545 0-1.336.116-2.645.339-3.917-.08-4.11-3.239-7.356-7.044-7.356-3.51 0-6.47 2.761-6.971 6.416.343 1.564.524 3.19.524 4.857 0 12.451-10.094 22.545-22.545 22.545-12.452 0-22.546-10.094-22.546-22.545 0-2.288.341-4.496.974-6.576h-6.14a2.348 2.348 0 0 1 0-4.697h7.515c.214 0 .422.029.62.083 3.886-6.785 11.198-11.356 19.577-11.356 8.785 0 16.397 5.025 20.118 12.358 1.95-2.927 5.198-4.843 8.874-4.843 3.769 0 7.087 2.014 9.02 5.067zM94.879 124.94c10.376 0 18.788-8.411 18.788-18.787 0-10.377-8.412-18.788-18.788-18.788S76.09 95.775 76.09 106.152c0 10.376 8.412 18.787 18.788 18.787zm58.242 0c10.376 0 18.788-8.411 18.788-18.787 0-10.377-8.412-18.788-18.788-18.788s-18.788 8.411-18.788 18.788c0 10.376 8.412 18.787 18.788 18.787z"/>
                        <path fill="#252C2F" d="M132.891 96.188c3.678-7.454 11.355-12.582 20.23-12.582 8.38 0 15.69 4.571 19.577 11.356.198-.054.406-.083.62-.083h7.515a2.348 2.348 0 0 1 0 4.697h-6.14c.633 2.08.974 4.288.974 6.576 0 12.451-10.094 22.545-22.546 22.545-12.451 0-22.545-10.094-22.545-22.545 0-1.336.116-2.645.339-3.917-.08-4.11-3.239-7.356-7.044-7.356-3.51 0-6.47 2.761-6.971 6.416.343 1.564.524 3.19.524 4.857 0 12.451-10.094 22.545-22.545 22.545-12.452 0-22.546-10.094-22.546-22.545 0-2.288.341-4.496.974-6.576h-6.14a2.348 2.348 0 0 1 0-4.697h7.515c.214 0 .422.029.62.083 3.886-6.785 11.198-11.356 19.577-11.356 8.785 0 16.397 5.025 20.118 12.358 1.95-2.927 5.198-4.843 8.874-4.843 3.769 0 7.087 2.014 9.02 5.067zM94.879 124.94c10.376 0 18.788-8.411 18.788-18.787 0-10.377-8.412-18.788-18.788-18.788S76.09 95.775 76.09 106.152c0 10.376 8.412 18.787 18.788 18.787zm58.242 0c10.376 0 18.788-8.411 18.788-18.787 0-10.377-8.412-18.788-18.788-18.788s-18.788 8.411-18.788 18.788c0 10.376 8.412 18.787 18.788 18.787z"/>
                        <g fill="#D6B370">
                            <path d="M81.9 35.562c4.829-3.6 10.538-6.685 16.494-7.87 6.057-1.205 9.731-1.497 15.693-.069 1.534.368 2.051.733 3.401-.14 1.138-.734 9.077-8.914 33.274-4.374 24.457 4.589 31.722 41.404 40.794 42.805 3.27.504 7.31-.362 7.437-2.374 3.723 5.668 4.704 13.158 3.126 19.796-1.36 5.718-4.225 11.09-9.384 14.22-4.44 2.693-10.577 3.867-15.708 3.37-2.334-.226-4.457-.717-6.605-1.66-2.592-1.135-4.657-3.185-7.2-4.267a50.586 50.586 0 0 0 8.62 6.03c1.54.851 3.103 1.438 4.803 1.9 1.16.316 3.533 1.392 4.656 1.11-7.335 1.313-14.242.17-20.967-2.97-3.035-1.417-5.954-3.13-8.634-5.145-2.661-2-5.725-4.045-7.807-6.678.874 1.13-.655-.551-.857-.757a63.111 63.111 0 0 1-1.679-1.78 69.015 69.015 0 0 1-2.753-3.186c-1.873-2.335-3.617-4.774-5.173-7.33-1.576-2.589-7.852-13.032-9.747-15.49 1.79 5.362 3.739 10.726 6.02 15.9-4.428-1.382-8.722-5.209-11.55-8.775-3.187-4.017-5.074-8.706-5.739-13.777-3.593 9.784-12.01 17.5-20.696 22.822 1.882-3.504 4.749-6.467 6.625-10.03-8.634 8.763-23.08 13.05-26.863 25.902-.97-4.469-4.088-8.06-5.023-12.619-1.037-5.062-1.782-10.435-1.617-15.609.373-11.5 8.109-22.284 17.059-28.955z"/>
                        </g>
                    </g>
                </g>
            </g>
        </g>
        <path fill="#E8ECEE" d="M-987.04-1512.8h2222.08v3273.6H-987.04z" mask="url(#b)" style="mix-blend-mode:color"/>
        <path fill="#E8ECEE" d="M-987.04-1512.8h2222.08v3273.6H-987.04z" mask="url(#b)" opacity=".8"/>
    </g>
</svg>
